# xmcd
#
# Track frame offsets: 
#        150
#        20335
#        38975
#        68332
#        84220
#        97357
#        117532
#        140855
#        163732
#        183547
#        196502
#
# Disc length: 2898 seconds
#
# Revision: 0
# Processed by: cddbd v1.5.2PL0 Copyright (c) Steve Scherf et al.
# Submitted via: ExactAudioCopy v1.0b3
#
DISCID=940b500b
DTITLE=Mikael Rickfors - The Wheel
DYEAR=1976
DGENRE=Pop
TTITLE0=Live Your Life
TTITLE1=Any Little Thing
TTITLE2=Jealousy
TTITLE3=Then There's A Change
TTITLE4=I've Got Your Number
TTITLE5=Hey, Lady Riches
TTITLE6=Ascension Day
TTITLE7=Girl, You Leaving Me
TTITLE8=The Next Man
TTITLE9=Take A Message To My Baby
TTITLE10=The Wheel
EXTD=
EXTT0=
EXTT1=
EXTT2=
EXTT3=
EXTT4=
EXTT5=
EXTT6=
EXTT7=
EXTT8=
EXTT9=
EXTT10=
PLAYORDER=
